<?xml version="1.0" encoding="UTF-8" standalone="no"?>
<!-- Generator: Adobe Illustrator 19.0.0, SVG Export Plug-In . SVG Version: 6.00 Build 0)  -->

<svg
   xmlns:dc="http://purl.org/dc/elements/1.1/"
   xmlns:cc="http://creativecommons.org/ns#"
   xmlns:rdf="http://www.w3.org/1999/02/22-rdf-syntax-ns#"
   xmlns:svg="http://www.w3.org/2000/svg"
   xmlns="http://www.w3.org/2000/svg"
   xmlns:sodipodi="http://sodipodi.sourceforge.net/DTD/sodipodi-0.dtd"
   xmlns:inkscape="http://www.inkscape.org/namespaces/inkscape"
   version="1.1"
   id="Layer_1"
   x="0px"
   y="0px"
   viewBox="0 0 321 194"
   xml:space="preserve"
   inkscape:version="0.91 r13725"
   sodipodi:docname="logo.svg"
   width="321"
   height="194"><metadata
   id="metadata4315"><rdf:RDF><cc:Work
       rdf:about=""><dc:format>image/svg+xml</dc:format><dc:type
         rdf:resource="http://purl.org/dc/dcmitype/StillImage" /><dc:title></dc:title></cc:Work></rdf:RDF></metadata><defs
   id="defs4313" /><sodipodi:namedview
   pagecolor="#ffffff"
   bordercolor="#666666"
   borderopacity="1"
   objecttolerance="10"
   gridtolerance="10"
   guidetolerance="10"
   inkscape:pageopacity="0"
   inkscape:pageshadow="2"
   inkscape:window-width="1920"
   inkscape:window-height="1017"
   id="namedview4311"
   showgrid="false"
   inkscape:zoom="0.26222222"
   inkscape:cx="-15.254237"
   inkscape:cy="450"
   inkscape:window-x="1912"
   inkscape:window-y="-8"
   inkscape:window-maximized="1"
   inkscape:current-layer="Layer_1" />
<style
   type="text/css"
   id="style4197">
	.st0{fill:#E6E6E7;}
	.st1{fill:#FFFFFF;}
	.st2{fill:#273A56;}
	.st3{fill:#274547;}
	.st4{fill:#6FB353;}
	.st5{fill:none;stroke:#FFFFFF;stroke-width:5;stroke-miterlimit:10;}
</style>

<g
   id="g4249"
   transform="translate(-283.27119,-349.71186)">
	<g
   id="g4251">
		<g
   id="g4253">
			<path
   class="st4"
   d="m 317.6,532 -1.7,-4.5 -11.4,0 -1.7,4.5 -6.4,0 10.3,-26.7 7.1,0 10.2,26.7 -6.4,0 z m -7.4,-21 -4.2,11.5 8.3,0 -4.1,-11.5 z"
   id="path4255"
   inkscape:connector-curvature="0"
   style="fill:#6fb353" />
			<path
   class="st4"
   d="m 335.9,532 0,-26.7 5.7,0 0,21.7 11.3,0 0,5 -17,0 z"
   id="path4257"
   inkscape:connector-curvature="0"
   style="fill:#6fb353" />
			<path
   class="st4"
   d="m 366,532 0,-26.7 5.7,0 0,21.7 11.3,0 0,5 -17,0 z"
   id="path4259"
   inkscape:connector-curvature="0"
   style="fill:#6fb353" />
			<path
   class="st2"
   d="m 394.1,518.7 c 0,-8.4 6.4,-13.8 14.2,-13.8 5.5,0 9,2.8 11,6 l -4.7,2.6 c -1.2,-1.9 -3.5,-3.5 -6.3,-3.5 -4.9,0 -8.4,3.7 -8.4,8.8 0,5.1 3.5,8.8 8.4,8.8 3.8,0 6.1,-2.4 6.9,-5.2 l -8.3,0 0,-5 14.6,0 c 0,9.5 -5.2,15.3 -13.7,15.3 -7.3,-0.2 -13.7,-5.6 -13.7,-14 z"
   id="path4261"
   inkscape:connector-curvature="0"
   style="fill:#273a56" />
			<path
   class="st2"
   d="m 433.5,532 0,-26.7 5.7,0 0,21.7 11.3,0 0,5 -17,0 z"
   id="path4263"
   inkscape:connector-curvature="0"
   style="fill:#273a56" />
			<path
   class="st2"
   d="m 461.6,518.7 c 0,-8 5.9,-13.8 14,-13.8 8,0 13.9,5.8 13.9,13.8 0,8 -5.9,13.8 -13.9,13.8 -8.1,0 -14,-5.8 -14,-13.8 z m 22,0 c 0,-5 -3.2,-8.8 -8.1,-8.8 -5,0 -8.1,3.8 -8.1,8.8 0,5 3.2,8.8 8.1,8.8 5,0 8.1,-3.8 8.1,-8.8 z"
   id="path4265"
   inkscape:connector-curvature="0"
   style="fill:#273a56" />
			<path
   class="st2"
   d="m 503.1,532 0,-26.7 14,0 c 5.1,0 7.7,3.2 7.7,6.8 0,3.3 -2.1,5.6 -4.6,6.1 2.9,0.4 5.1,3.2 5.1,6.5 0,4 -2.6,7.2 -7.8,7.2 l -14.4,0 z M 519,513.2 c 0,-1.6 -1.2,-2.8 -3.1,-2.8 l -7.1,0 0,5.6 7.1,0 c 1.9,0 3.1,-1.1 3.1,-2.8 z m 0.5,10.8 c 0,-1.7 -1.2,-3 -3.4,-3 l -7.4,0 0,6.1 7.4,0 c 2.1,-0.1 3.4,-1.2 3.4,-3.1 z"
   id="path4267"
   inkscape:connector-curvature="0"
   style="fill:#273a56" />
			<path
   class="st2"
   d="m 557.6,532 -1.7,-4.5 -11.4,0 -1.7,4.5 -6.4,0 10.3,-26.7 7.1,0 10.2,26.7 -6.4,0 z m -7.4,-21 -4.2,11.5 8.3,0 -4.1,-11.5 z"
   id="path4269"
   inkscape:connector-curvature="0"
   style="fill:#273a56" />
			<path
   class="st2"
   d="m 575.9,532 0,-26.7 5.7,0 0,21.7 11.3,0 0,5 -17,0 z"
   id="path4271"
   inkscape:connector-curvature="0"
   style="fill:#273a56" />
		</g>
	</g>
	<g
   id="g4273">
		<g
   id="g4275">
			<g
   id="g4277">
				<path
   class="st0"
   d="m 422.9,372.6 c -27.2,0 -49.2,22 -49.2,49.2 0,27.2 22,49.2 49.2,49.2 0.1,0 0.1,0 0.2,0 l 0,-98.4 c -0.1,0 -0.1,0 -0.2,0 z"
   id="path4279"
   inkscape:connector-curvature="0"
   style="fill:#e6e6e7" />
				<path
   class="st1"
   d="m 472.1,421.8 c 0,-27.1 -21.9,-49.1 -49.1,-49.2 l 0,98.4 c 27.2,-0.1 49.1,-22.1 49.1,-49.2 z"
   id="path4281"
   inkscape:connector-curvature="0"
   style="fill:#ffffff" />
				<path
   class="st2"
   d="m 468.9,403.9 -2.6,0 -1.3,-1.4 -0.2,-2.3 -1.3,0.7 -0.7,2.8 -1.9,-2 -0.1,-1.9 -1.8,-1.6 -0.7,-0.7 -2.1,0 0.7,1.9 2.6,1.4 0.4,0.5 -0.6,0.3 0,1.5 -1.2,0.5 -1.1,-0.2 -0.7,-0.9 1.7,0.1 0.5,-0.6 -3.8,-2.6 -0.3,-1.1 -1.6,1.4 -1.6,-0.3 -2.4,3.1 -0.5,1.2 -1.5,0.1 -2.3,0 -1.4,-0.6 -0.4,-2.7 0.5,-1.3 2.3,-0.5 2.5,0.5 0.3,-1.4 -1.1,-0.3 0.4,-2.2 2.5,-0.4 1.8,-2.5 1.8,-0.3 1.7,0.2 0.6,0 -0.3,-2.4 -2,0.8 -0.7,-1.8 -1.2,-0.2 -0.2,-1.2 1,-1 2.3,-0.9 0.6,-1 c -8.7,-7.6 -20,-12.3 -32.4,-12.3 l 0,8.9 0.9,0.4 0,1.8 1.5,0.4 -0.7,1.4 -1.7,0 0,6.4 1,0.6 -0.1,1.8 -0.9,0.3 0,1.2 1.4,0.7 0,1.2 -0.6,0.1 c 0,0 0,0 0,0 l -0.8,-0.2 0,33 1.2,0.5 4.3,0 1.3,2.1 1.9,0.6 -0.4,1.7 -2.1,2.7 -0.6,5.9 -1.9,1.5 -2.8,-0.1 -0.9,1.6 0,0 0.7,3.1 -0.7,0.9 0,20.2 c 15.4,0 29.1,-7.1 38.1,-18.2 l -1.6,0 0,-3.3 -1.9,-2.5 0,-4 -1.4,-1.4 -0.1,-1.6 1.8,-3.5 -3.5,-6.1 0.4,-4.1 -3.1,-0.3 -1.1,-1.1 -2.1,0 -1.1,1 -3.7,0 -0.1,0.3 -2,0 -4.7,-5.4 0,-4.2 0.8,-0.3 0.3,-1.6 -1.1,0 -0.5,-1.7 5.4,-3.9 0,-2.8 2.7,-1.5 1.1,0.1 2.2,0 1.7,-0.9 5.5,-0.4 0,2.8 4.4,1.1 0.9,0.6 0.8,0 0,-1.5 2.5,-0.2 2.4,1.8 3.9,0 0.3,-0.3 c -0.4,-1.4 -0.9,-2.7 -1.4,-4 z m -23.2,-14 0.5,-0.7 1.6,-0.3 0.4,2 0.9,1.4 0.6,0.7 1,0.4 -1,1.2 -1.9,0.2 -1.4,0 0.2,-1.7 1.2,-0.2 -0.1,-0.8 -1.1,-0.7 -0.8,-0.5 0,-1 z m -2.7,3.1 1,-1.6 1.3,-0.3 0.9,0.4 -0.1,1.1 -2,1.4 -1.1,0 0,-1 z"
   id="path4283"
   inkscape:connector-curvature="0"
   style="fill:#273a56" />
				<polygon
   class="st3"
   points="423.1,446.8 423.1,446.8 423.1,446.8 "
   id="polygon4285"
   style="fill:#274547" />
				<path
   class="st4"
   d="m 420.7,453.8 -1,1.8 -2.9,1.4 -1.9,0.3 -0.1,0.8 1.4,0.4 -0.2,0.9 -1.2,1.2 0.7,0.9 1.5,0 -0.1,1.1 -0.4,1.1 -0.1,0.9 2.2,1.8 -0.3,0.9 -2.9,-0.1 -2.9,-2.5 -2.3,-4 0.3,-3.9 -1.7,-2.3 0.7,-3.9 -1,-0.3 0,-8.4 c 0,0 -2.9,-2.2 -3,-2.2 -0.2,0 -1.5,-0.4 -1.5,-0.4 l -0.3,-1.6 -3.7,-4.7 0.4,-1.7 0.1,-2.7 2.6,-1.8 -0.4,-3.1 -3.8,-0.3 -2.9,-3.4 -2.1,-0.6 -1.3,-0.2 0.2,-1.2 -1.7,-0.2 0,0.7 -4.3,-1.1 -1.7,-2.6 0.7,-1.3 -2.7,-4 -0.5,-2.9 -1.1,0 0.4,2.8 1.9,2.9 -0.2,1.1 -1.6,-0.2 -2,-3.4 0,-3.9 -2,-1 0,-2.8 c -2.5,5.9 -3.9,12.4 -3.9,19.3 0,27.2 22.1,49.3 49.3,49.3 0,0 0.1,0 0.1,0 l 0,-20.2 -2.8,3.3 z"
   id="path4287"
   inkscape:connector-curvature="0"
   style="fill:#6fb353" />
				<path
   class="st2"
   d="m 421.1,396.6 -0.1,-0.9 0,0 0.8,-0.6 0,-0.8 -0.9,-0.2 -0.2,0.7 -1.5,0.2 -0.1,-0.1 0,0.1 -0.5,0.1 -0.4,-0.9 -0.5,-0.2 -1.1,0 -0.5,0.4 0,0.9 0.9,0.3 0.9,0.1 -0.2,0.1 -0.8,0.9 -0.4,-0.5 -0.8,-0.2 -2.2,2.1 0.3,0.2 -3.2,1.8 -3,3.2 -0.2,1.4 -3,2 -1.5,1.5 0.2,3 -2.1,-1 0,-1.8 -5.8,0 -3,1.5 -1.3,2.4 -0.5,1.9 0.8,1.9 2.4,0.3 3.8,-2.5 0.3,1.2 -1.2,2.2 2.9,0.5 0.3,4.4 3.9,0.7 2.5,-2.9 3,0.6 1.1,1.5 2.9,-0.2 0.1,-0.9 1.6,0.8 1.8,2.8 3.1,0 1.1,2 0.2,2.5 2.2,0.8 1.5,-0.7 0.2,-31.8 -1.7,-0.5 -2.1,-0.3 z m -4.9,2.4 -1,0.1 0.1,-0.7 0.5,-0.6 0.6,0.5 -0.2,0.7 z m 3.6,-1.2 -0.7,0.1 -0.1,0.7 -0.5,0.3 -0.9,0.1 c 0,-0.2 0,-0.4 0,-0.4 l -0.3,0 0,-0.7 1.4,0 0.3,-0.8 0.6,0 0.6,0.1 -0.4,0.6 z"
   id="path4289"
   inkscape:connector-curvature="0"
   style="fill:#273a56" />
				<path
   class="st4"
   d="m 423,372.5 c -10.8,0 -20.8,3.5 -29,9.4 l 2.5,0 1.1,0.6 2.1,0.5 0.2,0.8 3.3,0.1 -0.4,-1.1 -2.9,-0.1 0.7,-0.7 -0.2,-0.8 -2.7,0 2.9,-2.2 2.8,0 1.3,1.8 2.2,0.1 1.3,-1.3 1,0.5 -1.8,1.8 c 0,0 -2.5,0 -2.4,0 0.1,0 0.2,1.7 0.2,1.7 l 3,-0.1 0.3,-0.8 2.1,-0.1 0.2,-1.2 -1.2,-0.2 0.4,-1.1 0.9,-0.3 3.3,0.2 -1.8,1.6 0.3,1.3 1.9,0.3 -0.1,-2.3 1.8,-0.9 3.2,-0.4 3.7,1.6 0,-8.9 c -0.1,0.2 -0.2,0.2 -0.2,0.2 z"
   id="path4291"
   inkscape:connector-curvature="0"
   style="fill:#6fb353" />
				<polygon
   class="st4"
   points="422.1,386.9 417.3,385.7 421,383.7 419.6,382.5 416.4,382.9 416.1,383.2 416.1,383.2 416,383.3 415.1,384.3 413.6,384.4 413.7,385.2 414.2,385.4 414.2,385.6 412.9,385.8 412.9,386.5 411.7,386.6 411.4,385.2 409.3,385.8 404.9,388.4 405.4,390.2 406.6,391 409.1,391.3 409.1,394.1 410.2,393.9 411.3,391.8 413.9,390.9 413.9,387.6 415.3,386.5 418.8,387.3 418.6,389.5 419.5,389.5 422.1,388.3 422.2,391.2 423.1,391.7 423.1,385.3 422.7,385.3 "
   id="polygon4293"
   style="fill:#6fb353" />
				<polygon
   class="st3"
   points="422.4,395.2 423.1,395.5 423.1,394.4 422.2,394.6 "
   id="polygon4295"
   style="fill:#274547" />
			</g>
			<path
   class="st2"
   d="m 484.6,421.7 c 0,-34 -27.7,-61.7 -61.7,-61.7 -34,0 -61.7,27.7 -61.7,61.7 0,34 27.7,61.7 61.7,61.7 34,0 61.7,-27.6 61.7,-61.7 z m -61.7,55 c -30.4,0 -55.2,-24.8 -55.2,-55.2 0,-30.4 24.8,-55.2 55.2,-55.2 30.4,0 55.2,24.8 55.2,55.2 -0.1,30.5 -24.8,55.2 -55.2,55.2 z"
   id="path4297"
   inkscape:connector-curvature="0"
   style="fill:#273a56" />
		</g>
		<path
   class="st1"
   d="m 360.2,440.2 c 0,0 11.7,1.7 32.8,-6.6 l -2.7,-8 38.9,6 -23.4,35 -3.5,-9.3 c 0,0 -20.2,4.2 -35.9,4.2 l -6.2,-21.3 z"
   id="path4299"
   inkscape:connector-curvature="0"
   style="fill:#ffffff" />
		<path
   class="st2"
   d="m 363.3,408.3 -1,5.9 c 0,0 -20.5,10.7 -19.7,22.7 0,0 7.2,16.2 55,-1.8 l -3.9,-7.3 30.9,5.9 -18.2,27.7 -3,-7.4 c 0,0 -59.2,17.2 -70.7,-14.5 0,0.1 -4.1,-17.3 30.6,-31.2 z"
   id="path4301"
   inkscape:connector-curvature="0"
   style="fill:#273a56" />
	</g>
</g>
<path
   class="st5"
   d="m 237.72881,89.78814 -20.2,0 0,-4.8 c 0,-2.5 -2.1,-4.6 -4.6,-4.6 l -17.7,0 c -2.5,0 -4.6,2.1 -4.6,4.6 l 0,4.8 -21,0 c -2.5,0 -4.6,2.1 -4.6,4.6 l 0,39.7 c 0,2.5 2.1,4.6 4.6,4.6 l 68.1,0 c 2.5,0 4.6,-2.1 4.6,-4.6 l 0,-39.7 c 0,-2.5 -2.1,-4.6 -4.6,-4.6 z m -44,-4.8 c 0,-0.9 0.7,-1.5 1.5,-1.5 l 17.7,0 c 0.8,0 1.5,0.7 1.5,1.5 l 0,4.8 -20.7,0 0,-4.8 z m 21.4,31.1 -8,0 0,8 -6,0 0,-8 -8,0 0,-6 8,0 0,-8 6,0 0,8 8,0 0,6 z"
   id="path4303"
   inkscape:connector-curvature="0"
   style="fill:none;stroke:#ffffff;stroke-width:5;stroke-miterlimit:10" />
<g
   id="g4305"
   transform="translate(-283.27119,-349.71186)">
	<path
   class="st4"
   d="m 496.2,430.1 -17.7,0 c -2.5,0 -4.6,2.1 -4.6,4.6 l 0,9 c 0,2.5 2.1,4.6 4.6,4.6 l 17.7,0 c 2.5,0 4.6,-2.1 4.6,-4.6 l 0,-9 c 0,-2.6 -2.1,-4.6 -4.6,-4.6 z m 1.5,13.6 c 0,0.8 -0.7,1.5 -1.5,1.5 l -17.7,0 c -0.8,0 -1.5,-0.7 -1.5,-1.5 l 0,-9 c 0,-0.9 0.7,-1.5 1.5,-1.5 l 17.7,0 c 0.8,0 1.5,0.7 1.5,1.5 l 0,9 z"
   id="path4307"
   inkscape:connector-curvature="0"
   style="fill:#6fb353" />
	<path
   class="st2"
   d="m 521,439.5 -68.1,0 c -2.5,0 -4.6,2.1 -4.6,4.6 l 0,39.7 c 0,2.5 2.1,4.6 4.6,4.6 l 68.1,0 c 2.5,0 4.6,-2.1 4.6,-4.6 l 0,-39.7 c 0,-2.5 -2.1,-4.6 -4.6,-4.6 z m -22.6,26.3 -8,0 0,8 -6,0 0,-8 -8,0 0,-6 8,0 0,-8 6,0 0,8 8,0 0,6 z"
   id="path4309"
   inkscape:connector-curvature="0"
   style="fill:#273a56" />
</g>
</svg>