<?xml version="1.0" encoding="UTF-8" standalone="no"?>
<svg
   xmlns:dc="http://purl.org/dc/elements/1.1/"
   xmlns:cc="http://creativecommons.org/ns#"
   xmlns:rdf="http://www.w3.org/1999/02/22-rdf-syntax-ns#"
   xmlns:svg="http://www.w3.org/2000/svg"
   xmlns="http://www.w3.org/2000/svg"
   xmlns:sodipodi="http://sodipodi.sourceforge.net/DTD/sodipodi-0.dtd"
   xmlns:inkscape="http://www.inkscape.org/namespaces/inkscape"
   version="1.1"
   x="0px"
   y="0px"
   viewBox="0 0 30 30"
   xml:space="preserve"
   id="svg4136"
   inkscape:version="0.91 r13725"
   sodipodi:docname="segdental.svg"><metadata
     id="metadata4148"><rdf:RDF><cc:Work
         rdf:about=""><dc:format>image/svg+xml</dc:format><dc:type
           rdf:resource="http://purl.org/dc/dcmitype/StillImage" /></cc:Work></rdf:RDF></metadata><defs
     id="defs4146" /><sodipodi:namedview
     pagecolor="#ffffff"
     bordercolor="#666666"
     borderopacity="1"
     objecttolerance="10"
     gridtolerance="10"
     guidetolerance="10"
     inkscape:pageopacity="0"
     inkscape:pageshadow="2"
     inkscape:window-width="1920"
     inkscape:window-height="1017"
     id="namedview4144"
     showgrid="false"
     inkscape:zoom="28.066667"
     inkscape:cx="15"
     inkscape:cy="15"
     inkscape:window-x="1912"
     inkscape:window-y="-8"
     inkscape:window-maximized="1"
     inkscape:current-layer="svg4136" /><g
     transform="translate(-90 -80)"
     id="g4138"
     style="fill:#49a6d0"><g
       id="g4140"
       style="fill:#49a6d0"><path
         d="M107.213,82.604c2.148,1.384,3.266,2.481,3.35,2.565c0.357,0.359,0.357,0.943,0,1.305    c-0.18,0.182-0.416,0.271-0.652,0.271c-0.234,0-0.469-0.09-0.648-0.27c-0.025-0.023-1.596-1.557-4.656-3.275    C102.094,82.24,89.186,78.073,97,96c0,0-3.139,12,3,12c0,0,1.318-9.857,5-9.857c3.684,0,5,9.857,5,9.857c6.139,0,3-12,3-12    C119.615,80.824,111.551,81.393,107.213,82.604z"
         id="path4142"
         style="fill:#49a6d0" /></g></g></svg>