<?xml version="1.0" encoding="UTF-8" standalone="no"?>
<svg
   xmlns:dc="http://purl.org/dc/elements/1.1/"
   xmlns:cc="http://creativecommons.org/ns#"
   xmlns:rdf="http://www.w3.org/1999/02/22-rdf-syntax-ns#"
   xmlns:svg="http://www.w3.org/2000/svg"
   xmlns="http://www.w3.org/2000/svg"
   xmlns:sodipodi="http://sodipodi.sourceforge.net/DTD/sodipodi-0.dtd"
   xmlns:inkscape="http://www.inkscape.org/namespaces/inkscape"
   version="1.1"
   x="0px"
   y="0px"
   viewBox="0 0 512 512"
   enable-background="new 0 0 512 512"
   xml:space="preserve"
   id="svg4720"
   inkscape:version="0.91 r13725"
   sodipodi:docname="segfrauderobo.svg"><metadata
     id="metadata4740"><rdf:RDF><cc:Work
         rdf:about=""><dc:format>image/svg+xml</dc:format><dc:type
           rdf:resource="http://purl.org/dc/dcmitype/StillImage" /></cc:Work></rdf:RDF></metadata><defs
     id="defs4738" /><sodipodi:namedview
     pagecolor="#ffffff"
     bordercolor="#666666"
     borderopacity="1"
     objecttolerance="10"
     gridtolerance="10"
     guidetolerance="10"
     inkscape:pageopacity="0"
     inkscape:pageshadow="2"
     inkscape:window-width="1920"
     inkscape:window-height="1017"
     id="namedview4736"
     showgrid="false"
     inkscape:zoom="0.4609375"
     inkscape:cx="-8.6779661"
     inkscape:cy="256"
     inkscape:window-x="1912"
     inkscape:window-y="-8"
     inkscape:window-maximized="1"
     inkscape:current-layer="svg4720" /><g
     id="g4722"
     style="fill:#49a6d0"><path
       fill="#000000"
       d="M204.166,476.531V415.03c0-11.237,0.121-22.595-0.12-33.832c-0.242-7.612-4.35-12.204-11.842-13.291   c-2.054-0.362-2.658-1.087-2.658-3.142c0-10.874,0.121-21.87-0.484-32.744c-0.483-10.754-4.229-20.662-9.907-29.724   c-11.479-18.124-27.67-29.844-48.694-34.677c-2.175-0.483-4.471-0.846-6.766-1.208c-2.175-0.242-4.471-0.363-6.766-0.967h-4.108   c-5.92,0.967-11.358,1.45-16.674,2.9c-27.912,8.095-46.398,25.978-54.252,54.131c-2.658,9.666-2.054,19.695-2.054,29.603v15.345   c-1.45,0.241-2.658,0.483-3.867,0.725c-6.403,1.329-10.512,6.283-10.512,12.808v68.872c0,10.512,0.121,21.024,0,31.536   c-0.121,9.183,2.054,13.05,9.787,16.311h159.372c4.592-1.812,7.854-4.833,8.941-9.908   C204.408,484.143,204.166,480.276,204.166,476.531z M128.407,437.866c-2.538,1.813-3.263,3.746-3.263,6.525   c0.242,6.524,0.242,13.05,0.121,19.574c-0.121,5.437-2.779,9.183-7.249,10.633c-4.108,1.45-8.217,0.483-11.117-3.021   c-1.087-1.571-2.054-3.504-2.296-5.437c-0.362-4.108-0.121-8.458-0.121-12.687h-0.241v-3.384c0.241-5.799-0.484-10.512-5.92-14.983   c-8.337-6.887-9.304-18.486-4.229-27.669c4.833-8.7,15.345-14.016,25.132-11.842c9.666,2.176,16.311,8.217,18.486,18.004   C140.006,423.488,136.624,431.824,128.407,437.866z M161.272,364.403c0,2.537-0.846,3.383-3.262,3.383   c-14.499-0.121-28.878,0-43.377,0H71.981c-3.625,0-3.867-0.121-3.867-3.746c0-8.82-0.363-17.64,0.12-26.461   c0.846-14.62,7.854-25.978,19.454-34.557c21.87-16.191,53.647-9.424,67.18,14.137c4.229,7.371,6.524,15.103,6.403,23.562   C161.151,348.696,161.151,356.549,161.272,364.403z"
       id="path4724"
       style="fill:#49a6d0" /><path
       fill="#000000"
       d="M300.334,124.666c-0.944-39.824-33.528-71.856-73.587-71.856c-24.477,0-46.12,12.041-59.421,30.536   l38.014,11.805c3.227-4.013,7.792-6.06,13.065-7.241c0.709-0.158,1.338-0.236,2.046-0.393c0.158,0,0.394-0.079,0.709-0.158V74.926   h8.894v12.356c8.027,1.023,15.741,2.44,21.565,8.658c-3.148,3.463-6.139,6.69-9.366,10.153L300.334,124.666z"
       id="path4726"
       style="fill:#49a6d0" /><path
       fill="#000000"
       d="M428.541,14.324H25.108c-10.861,0-19.754,8.894-19.754,19.755v184.481c0,7.241,3.856,13.537,9.68,16.921   l39.194-126.476V81.93c3.621-0.472,7.083-1.101,10.389-2.046v-0.078c3.856-1.023,7.398-2.44,10.704-4.25   c3.306-1.731,6.297-3.935,8.894-6.532c2.597-2.519,4.958-5.352,6.926-8.658c3.699-6.06,6.218-13.537,7.319-22.588h256.494   c6.69,29.435,17.708,40.375,44.389,43.995V149.3l48.874,15.19V34.079C448.217,23.218,439.402,14.324,428.541,14.324z"
       id="path4728"
       style="fill:#49a6d0" /><path
       fill="#000000"
       d="M288.764,180.073c-38.801-12.042-79.962,9.602-92.004,48.402c-11.963,38.722,9.681,79.884,48.403,91.926   c38.801,12.041,79.963-9.602,92.004-48.403C349.209,233.277,327.486,192.115,288.764,180.073z M264.13,234.064   c2.676,2.597,5.903,4.644,8.972,6.926c4.172,3.227,8.658,6.139,12.593,9.602c6.06,5.273,7.634,12.121,5.588,19.833   c-3.541,13.143-16.921,21.486-30.301,19.046c-0.787-0.157-1.653-0.236-2.676-0.393c-1.18,3.778-2.282,7.398-3.463,11.176   c-2.833-0.944-5.509-1.731-8.421-2.597c1.259-3.935,2.44-7.713,3.62-11.648c-7.792-4.329-15.819-8.343-19.282-17.472   c4.486-2.204,8.894-4.25,13.144-6.296c5.273,9.051,13.616,12.514,23.375,13.222c5.273,0.393,9.051-6.139,6.611-10.861   c-1.338-2.597-3.306-4.407-5.746-5.903c-6.454-4.093-12.671-8.5-17.865-14.088c-2.991-3.306-5.588-6.926-4.958-11.648   c0.787-5.903,2.676-11.412,6.847-15.898c4.958-5.273,11.255-6.69,18.259-5.982c0.629,0.079,1.338,0.157,1.968,0.236h0.787   c1.181-3.856,2.361-7.713,3.621-11.805c2.833,0.866,5.509,1.732,8.5,2.676c-1.18,3.856-2.44,7.713-3.62,11.727   c7.398,3.305,14.245,7.005,18.023,14.639c-4.014,2.361-7.87,4.565-11.963,6.926c-3.542-6.217-9.523-8.264-15.898-9.759   c-1.653-0.393-3.542-0.472-5.195-0.158C262.241,226.508,260.825,230.915,264.13,234.064z"
       id="path4730"
       style="fill:#49a6d0" /><path
       fill="#000000"
       d="M492.763,203.055L107.511,83.504c-10.389-3.227-21.408,2.597-24.634,12.986L28.178,272.707   c-1.338,4.25-1.102,8.736,0.315,12.593c13.301-21.014,33.606-35.731,59.972-43.444c0.393-0.079,0.787-0.236,1.101-0.236   c-0.157-0.158-0.393-0.236-0.55-0.315l26.287-84.606c23.06,4.329,43.444-2.833,55.329-29.042l245.003,76.028   c-2.361,30.143,4.958,43.759,29.435,55.092l-26.287,84.606c-26.208-3.463-43.444,5.982-55.486,29.435L216.279,327.17   c0.157,1.18,0.236,2.44,0.315,3.62c0.315,6.218,0.472,12.514,0.472,18.731c1.417,1.181,2.676,2.361,3.778,3.699l205.573,63.749   c10.388,3.227,21.486-2.597,24.712-12.986l54.62-176.217C508.976,217.379,503.231,206.282,492.763,203.055z"
       id="path4732"
       style="fill:#49a6d0" /><path
       fill="#000000"
       d="M84.185,69.016c-2.577,2.577-5.583,4.796-8.877,6.514C77.886,72.953,80.892,70.734,84.185,69.016z"
       id="path4734"
       style="fill:#49a6d0" /></g></svg>