<?xml version="1.0" encoding="UTF-8" standalone="no"?>
<svg
   xmlns:dc="http://purl.org/dc/elements/1.1/"
   xmlns:cc="http://creativecommons.org/ns#"
   xmlns:rdf="http://www.w3.org/1999/02/22-rdf-syntax-ns#"
   xmlns:svg="http://www.w3.org/2000/svg"
   xmlns="http://www.w3.org/2000/svg"
   xmlns:sodipodi="http://sodipodi.sourceforge.net/DTD/sodipodi-0.dtd"
   xmlns:inkscape="http://www.inkscape.org/namespaces/inkscape"
   version="1.1"
   x="0px"
   y="0px"
   viewBox="0 0 100 100"
   enable-background="new 0 0 100 100"
   xml:space="preserve"
   id="svg4136"
   inkscape:version="0.91 r13725"
   sodipodi:docname="seggastmedicos.svg"><metadata
     id="metadata4144"><rdf:RDF><cc:Work
         rdf:about=""><dc:format>image/svg+xml</dc:format><dc:type
           rdf:resource="http://purl.org/dc/dcmitype/StillImage" /></cc:Work></rdf:RDF></metadata><defs
     id="defs4142" /><sodipodi:namedview
     pagecolor="#ffffff"
     bordercolor="#666666"
     borderopacity="1"
     objecttolerance="10"
     gridtolerance="10"
     guidetolerance="10"
     inkscape:pageopacity="0"
     inkscape:pageshadow="2"
     inkscape:window-width="1920"
     inkscape:window-height="1017"
     id="namedview4140"
     showgrid="false"
     inkscape:zoom="8.42"
     inkscape:cx="50"
     inkscape:cy="58.838877"
     inkscape:window-x="1912"
     inkscape:window-y="-8"
     inkscape:window-maximized="1"
     inkscape:current-layer="svg4136" /><path
     d="M15.547,69.633c0.15-2.415,0.263-4.832,0.467-7.242c0.074-0.875-0.174-1.525-0.737-2.165  c-2.757-3.134-3.895-6.781-3.15-10.902c0.338-1.868,1.277-3.57,1.899-5.364c0.492-1.417,1.081-2.801,1.613-4.205  c0.157-0.415,0.316-0.764,0.821-0.887c0.605-0.147,0.667-0.771,0.841-1.231c0.99-2.613,2.211-5.12,3.485-7.599  c2.501-4.868,5.416-9.484,9.025-13.605c1.193-1.362,2.589-2.566,3.836-3.902c0.514-0.551,0.487-0.948,0.066-1.498  c-1.458-1.903-4.816-1.714-5.996,0.355c-0.015,0.027-0.027,0.055-0.043,0.081c-0.226,0.384-3.046,2.328-3.476,2.396  c-1.036,0.166-2.367-0.608-2.579-1.498c-0.247-1.035,0.702-2.453,1.954-2.759c0.713-0.175,1.441-0.26,2.074-0.67  c0.049-0.032,0.124-0.064,0.174-0.05c1.702,0.468,3.076-0.744,4.663-0.911c1.949-0.205,4.029,0.672,5.013,2.391  c0.364,0.635,0.731,0.711,1.402,0.585c3.193-0.602,5.862,0.383,7.982,2.832c0.579,0.669,1.041,1.461,2.075,1.488  c0.112,0.003,0.264,0.067,0.326,0.154c0.736,1.039,1.935,1.57,2.754,2.501c0.883,1.004,0.681,2.217-0.407,3.022  c-1.064,0.788-2.042,0.63-2.824-0.519c-0.449-0.659-0.898-1.307-1.433-1.903c-0.431-0.48-0.767-1.035-0.75-1.731  c0.013-0.535-0.345-0.909-0.634-1.296c-1.594-2.123-3.686-3.149-6.37-2.878c-0.746,0.075-1.074,0.365-0.986,1.184  c0.502,4.674,0.419,9.356,0.165,14.044c-0.268,4.939-1.021,9.805-2.059,14.633c-0.103,0.479-0.251,0.948-0.37,1.423  c-0.051,0.205-0.182,0.474,0,0.612c0.676,0.514,0.39,1.153,0.267,1.759c-0.52,2.552-1.099,5.093-1.578,7.653  c-0.54,2.883-2.198,5.018-4.419,6.768c-1.773,1.397-3.784,2.258-6.091,2.261c-0.379,0-0.719,0.001-0.955,0.385  c-1.876,3.056-3.111,6.272-2.367,9.939c0.62,3.054,2.521,5.214,5.098,6.775c3.998,2.422,7.976,1.832,12.003-0.115  c4.845-2.342,7.459-6.472,9.38-11.205c1.271-3.132,2.011-6.431,2.933-9.673c0.997-3.504,1.845-7.05,3.104-10.481  c1.43-3.895,3.34-7.472,6.14-10.58c4.981-5.528,14.021-6.83,20.394-2.939c5.256,3.209,8.493,7.77,9.531,13.841  c0.774,4.526-0.036,8.843-1.923,12.986c-1.935,4.247-4.739,7.825-8.183,10.97c-2.445,2.233-4.92,4.423-7.512,6.48  c-0.454,0.36-2.49,1.984-2.266,2.932c0.819,3.477-0.587,6.806-3.553,8.657c-4.865,3.036-11.612-0.449-12.007-6.177  c-0.236-3.421,1.334-5.894,4.131-7.548c2.749-1.626,5.598-1.386,8.247,0.379c0.765,0.51,1.204,0.427,1.894-0.146  c1.885-1.565,3.935-2.933,5.794-4.525c3.499-2.997,6.791-6.206,9.078-10.281c1.84-3.279,3.132-6.756,3.014-10.565  c-0.16-5.208-2.221-9.535-6.389-12.779c-1.997-1.554-4.177-2.675-6.731-2.935c-4.793-0.488-8.717,1.158-11.777,4.864  c-2.258,2.734-3.788,5.878-4.843,9.225c-1.703,5.406-2.923,10.954-4.743,16.331c-1.658,4.899-3.753,9.528-7.632,13.126  c-4.534,4.206-9.851,5.826-15.938,4.669c-5.565-1.058-10.185-6.262-10.729-11.91C15.641,71.652,15.543,70.648,15.547,69.633z   M28.866,20.381c-3.957,5.423-7.157,11.26-9.575,17.523c-0.287,0.742-0.789,1.483-0.226,2.338c0.089,0.135-0.008,0.42-0.069,0.62  c-0.623,2.051-1.247,4.103-1.892,6.147c-0.423,1.341-1.095,2.642-1.277,4.012c-0.43,3.22,1.317,6.211,3.995,7.357  c3.83,1.638,8.146-0.22,9.145-4.29c0.737-3.004,1.819-5.914,2.409-8.955c0.058-0.3,0.105-0.701,0.396-0.792  c0.712-0.222,0.748-0.805,0.883-1.365c1.966-8.183,2.654-16.491,2.406-24.887c-0.033-1.101-0.121-2.201-0.192-3.301  c-0.015-0.238,0.012-0.532-0.26-0.637c-0.233-0.091-0.395,0.136-0.548,0.269c-0.602,0.52-1.174,1.068-1.71,1.661  C31.35,17.188,29.082,20.085,28.866,20.381z"
     id="path4138"
     style="fill:#49a6d0" /></svg>