<?xml version="1.0" encoding="UTF-8" standalone="no"?>
<svg
   xmlns:dc="http://purl.org/dc/elements/1.1/"
   xmlns:cc="http://creativecommons.org/ns#"
   xmlns:rdf="http://www.w3.org/1999/02/22-rdf-syntax-ns#"
   xmlns:svg="http://www.w3.org/2000/svg"
   xmlns="http://www.w3.org/2000/svg"
   xmlns:sodipodi="http://sodipodi.sourceforge.net/DTD/sodipodi-0.dtd"
   xmlns:inkscape="http://www.inkscape.org/namespaces/inkscape"
   version="1.1"
   x="0px"
   y="0px"
   viewBox="0 0 100 100"
   enable-background="new 0 0 100 100"
   xml:space="preserve"
   id="svg5834"
   inkscape:version="0.91 r13725"
   sodipodi:docname="segincendios.svg"><metadata
     id="metadata5846"><rdf:RDF><cc:Work
         rdf:about=""><dc:format>image/svg+xml</dc:format><dc:type
           rdf:resource="http://purl.org/dc/dcmitype/StillImage" /></cc:Work></rdf:RDF></metadata><defs
     id="defs5844" /><sodipodi:namedview
     pagecolor="#ffffff"
     bordercolor="#666666"
     borderopacity="1"
     objecttolerance="10"
     gridtolerance="10"
     guidetolerance="10"
     inkscape:pageopacity="0"
     inkscape:pageshadow="2"
     inkscape:window-width="1920"
     inkscape:window-height="1017"
     id="namedview5842"
     showgrid="false"
     inkscape:zoom="2.36"
     inkscape:cx="-1.6949153"
     inkscape:cy="50"
     inkscape:window-x="1912"
     inkscape:window-y="-8"
     inkscape:window-maximized="1"
     inkscape:current-layer="svg5834" /><g
     id="g5836"
     style="fill:#49a6d0"><path
       d="M98.373,70.273C96.748,56.105,87.08,54.918,83.227,40.602c-3.055-11.336-3.074-18.625-0.416-29.882   c0,0-13.137,12.671-11.75,29.5l-20.69-17.343L2.615,62.359c-1.312,1.082-1.499,3.021-0.417,4.334l1.467,1.782   c1.07,1.296,2.977,1.49,4.288,0.45l7.597-6.259c0.451-0.377,1.033-0.414,1.305-0.088c0.274,0.326,0.131,0.893-0.321,1.27   l-6.476,5.403v27.093h80.629v-8.992C95.551,83.501,99.26,77.999,98.373,70.273z M92.291,75.307   c-0.963,5.26-3.395,7.141-8.961,11.846c-2.811,2.375-7.355,5.21-6.951,4.772c6.227-6.745,6.732-14.89,1.424-17.613   c0,0,1.77,5.753-1.006,7.569c-2.783,1.815-10.457-1.187-4.553-18.771c0,0-7.025,3.531-8.842,9.083   c-1.203,3.665-1.371,7.821,0,11.81c0.969,2.822-2.682,3.42-5.467-1.703c-1.289-2.374-0.826-7.89-0.826-7.89   c-0.801-0.051-6.157,5.195-1.795,13.716c0.424,0.828-3.668-2.966-5.706-6.782c-4.386-8.233,0.032-23.884,7.368-27.651   c0,0-2.446,7.954,1.393,10.463c3.844,2.515,11.877-1.252,6.289-25.946c0,0,9.711,4.883,12.225,12.556   c1.66,5.064,1.109,10.602,0,16.322c-0.643,3.326,4.389,6.319,7.334-0.348c1.572-3.557,0.117-8.089,0.117-8.089   C85.439,58.577,93.816,66.968,92.291,75.307z"
       id="path5838"
       style="fill:#49a6d0" /><polygon
       points="26.804,36.696 14.105,36.696 14.105,50.92 26.804,40.326  "
       id="polygon5840"
       style="fill:#49a6d0" /></g></svg>